<svg version="1.1" id="Layer_1" xmlns="http://www.w3.org/2000/svg" xmlns:xlink="http://www.w3.org/1999/xlink" x="0px" y="0px"
	 width="100%" viewBox="0 0 465 583" enable-background="new 0 0 465 583" xml:space="preserve">
<path fill="#2C2C2C" opacity="1.000000" stroke="none" 
	d="
M466.000000,167.000000 
	C466.000000,306.333344 466.000000,445.166656 466.000000,584.000000 
	C311.000000,584.000000 156.000000,584.000000 1.000000,584.000000 
	C1.000000,389.666656 1.000000,195.333328 1.000000,1.000000 
	C156.000000,1.000000 311.000000,1.000000 466.000000,1.000000 
	C466.000000,56.166668 466.000000,111.333336 466.000000,167.000000 
M278.894806,295.756073 
	C275.848419,288.469421 270.507172,283.345032 262.766907,282.305023 
	C255.263565,281.296875 247.442719,280.925720 239.961304,281.865997 
	C227.294205,283.458038 220.393799,291.400604 218.974960,304.166779 
	C218.589279,307.636871 218.378448,311.145325 218.376419,314.636292 
	C218.341095,375.629059 218.339386,436.621796 218.378937,497.614532 
	C218.381317,501.271057 218.581985,504.954346 219.049881,508.578735 
	C220.624649,520.777405 227.455643,528.566284 239.607101,530.291870 
	C246.572678,531.281128 253.913589,530.985718 260.917511,530.033203 
	C271.855133,528.545654 278.311890,521.544739 280.393188,510.778809 
	C281.177948,506.719452 281.565796,502.522186 281.582520,498.385529 
	C281.687042,472.555695 281.640106,446.725189 281.620544,420.894928 
	C281.619568,419.630188 281.404999,418.365540 281.303680,417.252289 
	C270.685028,417.252289 260.460205,417.252289 250.365707,417.252289 
	C250.365707,424.572296 250.365707,431.494598 250.365707,438.904694 
	C253.583710,438.904694 256.507935,438.904694 259.659851,438.904694 
	C259.659851,459.210876 259.662415,479.022583 259.648773,498.834320 
	C259.648315,499.494415 259.498260,500.156677 259.393738,500.814056 
	C258.387238,507.145508 256.015533,509.197998 249.768723,509.151947 
	C243.897659,509.108704 241.569748,507.050507 240.627289,500.869934 
	C240.352783,499.069794 240.297668,497.222198 240.297180,495.396301 
	C240.281204,435.903351 240.274536,376.410431 240.316315,316.917511 
	C240.318161,314.271759 240.554749,311.577972 241.093597,308.992371 
	C241.859650,305.316589 244.367188,303.398499 248.133392,303.017670 
	C256.126221,302.209412 259.596893,305.511200 259.663239,314.703857 
	C259.790741,332.367523 259.703491,350.032715 259.705261,367.697296 
	C259.705444,369.481140 259.705261,371.265015 259.705261,373.047302 
	C267.295624,373.047302 274.347595,373.047302 281.446320,373.047302 
	C281.446320,351.166260 281.561798,329.678528 281.340759,308.194275 
	C281.300598,304.290039 279.884003,300.399963 278.894806,295.756073 
M278.453125,152.500839 
	C278.438873,146.505829 278.614075,140.503036 278.368164,134.517548 
	C277.948975,124.312653 271.658081,118.135994 261.468994,118.108223 
	C228.495697,118.018349 195.521820,118.012627 162.548599,118.113670 
	C152.394104,118.144791 145.924698,124.602158 145.866211,134.667267 
	C145.747208,155.150146 145.757462,175.634521 145.857742,196.117569 
	C145.908676,206.515213 152.332870,212.862228 162.769073,212.940720 
	C176.257507,213.042175 189.747238,212.967209 203.236420,212.968155 
	C205.015457,212.968292 206.794479,212.968170 208.622528,212.968170 
	C208.622528,215.322159 208.622528,217.056213 208.622528,219.185654 
	C206.494537,219.185654 204.558426,218.790939 202.911591,219.311493 
	C201.612045,219.722275 200.668488,221.259247 199.566849,222.296036 
	C200.611023,223.383636 201.613800,225.361176 202.706207,225.411972 
	C209.017090,225.705505 215.354736,225.675049 221.668503,225.406326 
	C222.706329,225.362152 224.612030,223.401154 224.461105,222.665787 
	C224.197128,221.379501 222.844818,219.786667 221.593094,219.356445 
	C219.685974,218.700989 217.475983,218.926712 215.148849,218.760712 
	C215.247009,216.658630 215.321564,215.062073 215.419357,212.968231 
	C217.342148,212.968231 218.966385,212.968262 220.590607,212.968246 
	C233.413651,212.968155 246.236710,212.975327 259.059753,212.965973 
	C272.652039,212.956055 278.410065,207.186050 278.445404,193.468506 
	C278.479736,180.145950 278.452576,166.823227 278.453125,152.500839 
M305.211060,48.850258 
	C305.773712,50.208435 306.739929,51.542820 306.821686,52.929344 
	C307.046753,56.747566 306.609039,60.620430 307.033539,64.404358 
	C307.228027,66.137833 308.631226,68.930534 309.831879,69.126610 
	C313.104218,69.661003 313.140839,66.794388 313.138763,64.366447 
	C313.130463,54.704605 313.162140,45.042667 313.130890,35.380924 
	C313.090942,23.040846 307.070160,17.021267 294.713013,17.015268 
	C258.564362,16.997719 222.415710,16.998137 186.267090,17.020151 
	C173.959824,17.027647 167.917480,23.096436 167.904343,35.453896 
	C167.878494,59.775070 167.894226,84.096291 167.902054,108.417496 
	C167.902481,109.747452 167.585526,111.289734 168.144592,112.348679 
	C168.724945,113.447929 170.128555,114.594917 171.292038,114.736626 
	C172.085358,114.833252 173.456299,113.395241 173.892334,112.358749 
	C174.374756,111.212044 174.126022,109.740852 174.126694,108.410942 
	C174.135788,90.419914 174.132858,72.428894 174.132904,54.437866 
	C174.132919,52.673203 174.132919,50.908539 174.132919,48.790981 
	C218.003128,48.790981 261.131775,48.790981 305.211060,48.850258 
M253.321335,82.912033 
	C258.839661,80.638847 264.252594,78.043098 269.909698,76.194611 
	C274.429047,74.717888 277.621765,72.654633 278.421356,67.619843 
	C279.145966,63.057320 282.965515,64.750450 285.671204,64.559189 
	C288.135010,64.385025 290.730408,64.187439 291.140778,67.941788 
	C291.608917,72.224655 294.482635,74.492386 298.444794,75.888992 
	C302.976288,77.486282 307.463257,79.288208 311.781464,81.388062 
	C315.418427,83.156654 318.893188,83.588676 322.104492,81.067436 
	C325.749146,78.205948 327.440033,81.111198 329.558899,83.103683 
	C331.812866,85.223221 333.544067,86.897934 331.295502,90.658142 
	C329.878082,93.028435 330.103912,97.045593 330.927368,99.944954 
	C332.368591,105.019814 334.442535,110.024666 337.027771,114.622307 
	C338.493439,117.228951 341.193207,120.097275 343.888519,120.835976 
	C348.071350,121.982346 348.076019,124.401451 347.951172,127.513306 
	C347.835358,130.398666 348.768280,133.635376 344.067444,134.129730 
	C340.033478,134.553940 337.889954,137.392563 336.584930,141.228973 
	C335.038483,145.775314 333.136047,150.227112 331.042664,154.552841 
	C329.206299,158.347580 328.776642,161.966492 331.520966,165.305557 
	C333.917938,168.221909 332.045959,169.904602 330.098358,171.509552 
	C327.915588,173.308273 326.490265,177.378372 322.400269,174.284210 
	C319.349152,171.975967 316.069366,171.865555 312.526123,173.482925 
	C307.546753,175.755844 302.317413,177.505264 297.436493,179.958969 
	C295.232788,181.066757 292.452545,183.060471 291.965973,185.130005 
	C290.937775,189.503296 289.130219,191.430176 284.577393,191.085663 
	C283.712982,191.020264 282.191010,192.766769 281.931519,193.897400 
	C281.744843,194.710739 282.928558,196.392075 283.887421,196.819656 
	C288.189240,198.737991 295.292480,196.516678 296.188202,192.136002 
	C297.376526,186.324356 301.235718,185.154404 305.765747,183.776825 
	C308.602173,182.914276 311.138397,181.080872 313.965515,180.165329 
	C315.611481,179.632309 317.927979,179.399353 319.311401,180.167923 
	C323.031647,182.234650 326.842804,183.054794 330.027191,180.231308 
	C333.988861,176.718597 339.356506,173.861099 339.058136,167.269241 
	C339.028198,166.607590 339.133698,165.715836 338.761993,165.327637 
	C334.137817,160.498581 337.460358,156.302155 339.593689,151.883057 
	C340.815643,149.351776 341.290527,146.449738 342.587433,143.968445 
	C343.386780,142.439026 344.913605,140.653946 346.440552,140.264450 
	C350.416748,139.250259 353.608032,137.227463 353.836731,133.212402 
	C354.154968,127.624825 356.199707,121.414940 350.699310,116.852188 
	C350.195343,116.434105 349.562073,115.880875 348.989380,115.881493 
	C343.181702,115.887787 342.544525,111.343697 341.098846,107.306274 
	C339.982086,104.187500 338.201385,101.304176 337.117554,98.176956 
	C336.601288,96.687294 336.435272,94.573471 337.111572,93.256355 
	C340.951263,85.778290 333.717407,73.441582 325.167450,73.260025 
	C324.193909,73.239349 322.942444,73.260429 322.278412,73.813095 
	C317.757355,77.575790 313.802246,75.259323 309.608032,73.088791 
	C306.972473,71.724869 303.900879,71.207710 301.252472,69.862595 
	C299.692535,69.070320 297.768860,67.591896 297.416504,66.091499 
	C296.421600,61.854916 294.181030,58.756256 290.001678,58.377457 
	C284.686554,57.895718 278.915009,56.489731 274.412231,61.138149 
	C273.844940,61.723770 273.118134,62.484211 273.077423,63.198524 
	C272.750031,68.945480 268.531097,70.060928 264.088562,71.359360 
	C261.087616,72.236443 258.389618,74.111038 255.419876,75.150017 
	C253.900406,75.681610 251.803070,75.954918 250.444122,75.321365 
	C242.760391,71.739189 231.169281,78.157890 230.382065,86.679588 
	C230.292923,87.644562 230.229126,88.931915 230.755600,89.582878 
	C234.820786,94.609451 232.321564,99.037865 229.837845,103.614433 
	C228.816711,105.496010 227.847748,107.599648 227.656769,109.676010 
	C227.507111,111.303055 228.592102,113.043655 229.128571,114.733810 
	C230.590759,113.768242 232.645981,113.131996 233.400391,111.773399 
	C235.407227,108.159431 236.686020,104.148712 238.570145,100.456955 
	C240.418579,96.835106 240.651215,93.387726 238.128998,90.157356 
	C236.224457,87.718094 237.080383,86.145927 238.863602,84.130417 
	C241.890701,80.708984 244.764496,78.259705 249.194443,82.090584 
	C249.968002,82.759537 251.395462,82.672356 253.321335,82.912033 
M288.496674,149.237061 
	C285.978302,150.144638 281.253601,148.660309 281.945007,153.272476 
	C282.653656,157.999680 287.052765,155.981506 289.783691,155.506744 
	C301.867615,153.405884 311.347809,143.414902 312.868073,131.666214 
	C314.527069,118.845642 307.790222,106.794098 296.067993,101.612366 
	C285.122131,96.773827 271.772675,99.429970 264.100586,108.347305 
	C262.955109,109.678665 263.270081,112.266495 262.909454,114.273071 
	C264.746521,113.793571 267.096619,113.875847 268.337067,112.743027 
	C276.148590,105.609085 285.424622,103.643936 294.037109,107.699135 
	C302.286682,111.583450 307.570801,120.497345 306.745392,129.136978 
	C305.781952,139.221573 299.691681,146.191971 288.496674,149.237061 
M236.387329,58.053459 
	C222.236679,58.053478 208.086014,58.049255 193.935364,58.060459 
	C192.607605,58.061508 191.107346,57.792580 189.999344,58.313293 
	C188.823792,58.865753 187.320908,60.171394 187.261795,61.221367 
	C187.208145,62.174217 188.745605,63.504410 189.877625,64.145645 
	C190.791107,64.663094 192.145752,64.473587 193.304825,64.474770 
	C208.953766,64.490746 224.602707,64.489418 240.251663,64.476334 
	C241.412064,64.475365 242.758026,64.696861 243.685852,64.197868 
	C244.850418,63.571533 246.437592,62.304020 246.432480,61.320572 
	C246.427063,60.282726 244.918640,58.645611 243.787170,58.353493 
	C241.749207,57.827343 239.502640,58.109173 236.387329,58.053459 
M216.445068,70.839928 
	C209.976196,70.849243 203.501221,70.715569 197.043671,70.990616 
	C195.778488,71.044518 194.580704,72.680847 193.351822,73.587341 
	C194.357758,74.714546 195.338470,76.793076 196.373550,76.820511 
	C205.819473,77.070831 215.276901,77.052116 224.724442,76.832123 
	C225.719177,76.808952 226.672012,74.986580 227.644302,73.998955 
	C226.557297,72.969231 225.609055,71.330223 224.352707,71.044128 
	C222.140701,70.540421 219.740524,70.863167 216.445068,70.839928 
M216.112946,89.874825 
	C217.841537,88.760971 219.570129,87.647118 221.298706,86.533257 
	C219.547577,85.433510 217.880569,83.596062 216.028107,83.384766 
	C211.941086,82.918610 207.734940,83.017883 203.632584,83.432510 
	C202.248062,83.572449 201.030014,85.359566 199.735901,86.393890 
	C201.077484,87.544800 202.315567,89.500824 203.780884,89.689178 
	C207.531540,90.171310 211.383286,89.866913 216.112946,89.874825 
M207.761566,102.359123 
	C210.919434,102.342560 214.118530,102.617767 217.216873,102.179962 
	C218.654251,101.976852 219.895584,100.386406 221.225784,99.424896 
	C219.881104,98.291847 218.616852,96.319984 217.176788,96.181908 
	C212.730042,95.755562 208.197174,95.798492 203.739807,96.167374 
	C202.363663,96.281250 201.122253,98.023430 199.819138,99.020050 
	C201.168503,100.118202 202.417877,101.391846 203.908905,102.241348 
	C204.667862,102.673775 205.861374,102.343536 207.761566,102.359123 
z"/>
<path fill="#FBFBFB" opacity="1.000000" stroke="none" 
	d="
M278.998840,296.129700 
	C279.884003,300.399963 281.300598,304.290039 281.340759,308.194275 
	C281.561798,329.678528 281.446320,351.166260 281.446320,373.047302 
	C274.347595,373.047302 267.295624,373.047302 259.705261,373.047302 
	C259.705261,371.265015 259.705444,369.481140 259.705261,367.697296 
	C259.703491,350.032715 259.790741,332.367523 259.663239,314.703857 
	C259.596893,305.511200 256.126221,302.209412 248.133392,303.017670 
	C244.367188,303.398499 241.859650,305.316589 241.093597,308.992371 
	C240.554749,311.577972 240.318161,314.271759 240.316315,316.917511 
	C240.274536,376.410431 240.281204,435.903351 240.297180,495.396301 
	C240.297668,497.222198 240.352783,499.069794 240.627289,500.869934 
	C241.569748,507.050507 243.897659,509.108704 249.768723,509.151947 
	C256.015533,509.197998 258.387238,507.145508 259.393738,500.814056 
	C259.498260,500.156677 259.648315,499.494415 259.648773,498.834320 
	C259.662415,479.022583 259.659851,459.210876 259.659851,438.904694 
	C256.507935,438.904694 253.583710,438.904694 250.365707,438.904694 
	C250.365707,431.494598 250.365707,424.572296 250.365707,417.252289 
	C260.460205,417.252289 270.685028,417.252289 281.303680,417.252289 
	C281.404999,418.365540 281.619568,419.630188 281.620544,420.894928 
	C281.640106,446.725189 281.687042,472.555695 281.582520,498.385529 
	C281.565796,502.522186 281.177948,506.719452 280.393188,510.778809 
	C278.311890,521.544739 271.855133,528.545654 260.917511,530.033203 
	C253.913589,530.985718 246.572678,531.281128 239.607101,530.291870 
	C227.455643,528.566284 220.624649,520.777405 219.049881,508.578735 
	C218.581985,504.954346 218.381317,501.271057 218.378937,497.614532 
	C218.339386,436.621796 218.341095,375.629059 218.376419,314.636292 
	C218.378448,311.145325 218.589279,307.636871 218.974960,304.166779 
	C220.393799,291.400604 227.294205,283.458038 239.961304,281.865997 
	C247.442719,280.925720 255.263565,281.296875 262.766907,282.305023 
	C270.507172,283.345032 275.848419,288.469421 278.998840,296.129700 
z"/>
<path fill="#78C2CA" opacity="1.000000" stroke="none" 
	d="
M278.452759,153.000702 
	C278.452576,166.823227 278.479736,180.145950 278.445404,193.468506 
	C278.410065,207.186050 272.652039,212.956055 259.059753,212.965973 
	C246.236710,212.975327 233.413651,212.968155 220.590607,212.968246 
	C218.966385,212.968262 217.342148,212.968231 215.419357,212.968231 
	C215.321564,215.062073 215.247009,216.658630 215.148849,218.760712 
	C217.475983,218.926712 219.685974,218.700989 221.593094,219.356445 
	C222.844818,219.786667 224.197128,221.379501 224.461105,222.665787 
	C224.612030,223.401154 222.706329,225.362152 221.668503,225.406326 
	C215.354736,225.675049 209.017090,225.705505 202.706207,225.411972 
	C201.613800,225.361176 200.611023,223.383636 199.566833,222.296051 
	C200.668488,221.259247 201.612045,219.722275 202.911591,219.311493 
	C204.558426,218.790939 206.494537,219.185654 208.622528,219.185654 
	C208.622528,217.056213 208.622528,215.322159 208.622528,212.968170 
	C206.794479,212.968170 205.015457,212.968292 203.236420,212.968155 
	C189.747238,212.967209 176.257507,213.042175 162.769073,212.940720 
	C152.332870,212.862228 145.908676,206.515213 145.857742,196.117569 
	C145.757462,175.634521 145.747208,155.150146 145.866211,134.667267 
	C145.924698,124.602158 152.394104,118.144791 162.548599,118.113670 
	C195.521820,118.012627 228.495697,118.018349 261.468994,118.108223 
	C271.658081,118.135994 277.948975,124.312653 278.368164,134.517548 
	C278.614075,140.503036 278.438873,146.505829 278.452759,153.000702 
M271.089081,129.883881 
	C268.847290,125.306160 264.778320,124.384132 260.205139,124.385719 
	C228.045395,124.396858 195.885574,124.349403 163.725983,124.422203 
	C155.319412,124.441231 152.052902,127.939522 152.041382,136.457718 
	C152.016800,154.620438 152.033386,172.783218 152.033554,190.945984 
	C152.033691,204.602509 154.094849,206.695465 167.554245,206.696136 
	C192.048981,206.697372 216.543701,206.697403 241.038437,206.695923 
	C247.870285,206.695511 254.706024,206.830673 261.532867,206.643875 
	C268.468750,206.454117 272.017822,202.837982 272.038452,196.031372 
	C272.100067,175.702606 272.073547,155.373489 272.033539,135.044617 
	C272.030640,133.573196 271.642120,132.102524 271.089081,129.883881 
z"/>
<path fill="#77BFC7" opacity="1.000000" stroke="none" 
	d="
M304.735718,48.820618 
	C261.131775,48.790981 218.003128,48.790981 174.132919,48.790981 
	C174.132919,50.908539 174.132919,52.673203 174.132904,54.437866 
	C174.132858,72.428894 174.135788,90.419914 174.126694,108.410942 
	C174.126022,109.740852 174.374756,111.212044 173.892334,112.358749 
	C173.456299,113.395241 172.085358,114.833252 171.292038,114.736626 
	C170.128555,114.594917 168.724945,113.447929 168.144592,112.348679 
	C167.585526,111.289734 167.902481,109.747452 167.902054,108.417496 
	C167.894226,84.096291 167.878494,59.775070 167.904343,35.453896 
	C167.917480,23.096436 173.959824,17.027647 186.267090,17.020151 
	C222.415710,16.998137 258.564362,16.997719 294.713013,17.015268 
	C307.070160,17.021267 313.090942,23.040846 313.130890,35.380924 
	C313.162140,45.042667 313.130463,54.704605 313.138763,64.366447 
	C313.140839,66.794388 313.104218,69.661003 309.831879,69.126610 
	C308.631226,68.930534 307.228027,66.137833 307.033539,64.404358 
	C306.609039,60.620430 307.046753,56.747566 306.821686,52.929344 
	C306.739929,51.542820 305.773712,50.208435 304.735718,48.820618 
M306.505798,30.533215 
	C304.614899,24.472897 299.925781,23.256065 294.327179,23.264572 
	C263.014465,23.312157 231.701660,23.285284 200.388885,23.287374 
	C195.059143,23.287729 189.721893,23.130686 184.401550,23.359106 
	C177.822662,23.641554 174.389587,27.265028 174.142715,33.821201 
	C174.044403,36.431938 174.126556,39.049465 174.126556,41.756447 
	C218.696640,41.756447 262.682007,41.756447 306.726562,41.756447 
	C306.726562,37.976269 306.726562,34.660847 306.505798,30.533215 
z"/>
<path fill="#77C0C8" opacity="1.000000" stroke="none" 
	d="
M252.921112,82.923218 
	C251.395462,82.672356 249.968002,82.759537 249.194443,82.090584 
	C244.764496,78.259705 241.890701,80.708984 238.863602,84.130417 
	C237.080383,86.145927 236.224457,87.718094 238.128998,90.157356 
	C240.651215,93.387726 240.418579,96.835106 238.570145,100.456955 
	C236.686020,104.148712 235.407227,108.159431 233.400391,111.773399 
	C232.645981,113.131996 230.590759,113.768242 229.128571,114.733810 
	C228.592102,113.043655 227.507111,111.303055 227.656769,109.676010 
	C227.847748,107.599648 228.816711,105.496010 229.837845,103.614433 
	C232.321564,99.037865 234.820786,94.609451 230.755600,89.582878 
	C230.229126,88.931915 230.292923,87.644562 230.382065,86.679588 
	C231.169281,78.157890 242.760391,71.739189 250.444122,75.321365 
	C251.803070,75.954918 253.900406,75.681610 255.419876,75.150017 
	C258.389618,74.111038 261.087616,72.236443 264.088562,71.359360 
	C268.531097,70.060928 272.750031,68.945480 273.077423,63.198524 
	C273.118134,62.484211 273.844940,61.723770 274.412231,61.138149 
	C278.915009,56.489731 284.686554,57.895718 290.001678,58.377457 
	C294.181030,58.756256 296.421600,61.854916 297.416504,66.091499 
	C297.768860,67.591896 299.692535,69.070320 301.252472,69.862595 
	C303.900879,71.207710 306.972473,71.724869 309.608032,73.088791 
	C313.802246,75.259323 317.757355,77.575790 322.278412,73.813095 
	C322.942444,73.260429 324.193909,73.239349 325.167450,73.260025 
	C333.717407,73.441582 340.951263,85.778290 337.111572,93.256355 
	C336.435272,94.573471 336.601288,96.687294 337.117554,98.176956 
	C338.201385,101.304176 339.982086,104.187500 341.098846,107.306274 
	C342.544525,111.343697 343.181702,115.887787 348.989380,115.881493 
	C349.562073,115.880875 350.195343,116.434105 350.699310,116.852188 
	C356.199707,121.414940 354.154968,127.624825 353.836731,133.212402 
	C353.608032,137.227463 350.416748,139.250259 346.440552,140.264450 
	C344.913605,140.653946 343.386780,142.439026 342.587433,143.968445 
	C341.290527,146.449738 340.815643,149.351776 339.593689,151.883057 
	C337.460358,156.302155 334.137817,160.498581 338.761993,165.327637 
	C339.133698,165.715836 339.028198,166.607590 339.058136,167.269241 
	C339.356506,173.861099 333.988861,176.718597 330.027191,180.231308 
	C326.842804,183.054794 323.031647,182.234650 319.311401,180.167923 
	C317.927979,179.399353 315.611481,179.632309 313.965515,180.165329 
	C311.138397,181.080872 308.602173,182.914276 305.765747,183.776825 
	C301.235718,185.154404 297.376526,186.324356 296.188202,192.136002 
	C295.292480,196.516678 288.189240,198.737991 283.887421,196.819656 
	C282.928558,196.392075 281.744843,194.710739 281.931519,193.897400 
	C282.191010,192.766769 283.712982,191.020264 284.577393,191.085663 
	C289.130219,191.430176 290.937775,189.503296 291.965973,185.130005 
	C292.452545,183.060471 295.232788,181.066757 297.436493,179.958969 
	C302.317413,177.505264 307.546753,175.755844 312.526123,173.482925 
	C316.069366,171.865555 319.349152,171.975967 322.400269,174.284210 
	C326.490265,177.378372 327.915588,173.308273 330.098358,171.509552 
	C332.045959,169.904602 333.917938,168.221909 331.520966,165.305557 
	C328.776642,161.966492 329.206299,158.347580 331.042664,154.552841 
	C333.136047,150.227112 335.038483,145.775314 336.584930,141.228973 
	C337.889954,137.392563 340.033478,134.553940 344.067444,134.129730 
	C348.768280,133.635376 347.835358,130.398666 347.951172,127.513306 
	C348.076019,124.401451 348.071350,121.982346 343.888519,120.835976 
	C341.193207,120.097275 338.493439,117.228951 337.027771,114.622307 
	C334.442535,110.024666 332.368591,105.019814 330.927368,99.944954 
	C330.103912,97.045593 329.878082,93.028435 331.295502,90.658142 
	C333.544067,86.897934 331.812866,85.223221 329.558899,83.103683 
	C327.440033,81.111198 325.749146,78.205948 322.104492,81.067436 
	C318.893188,83.588676 315.418427,83.156654 311.781464,81.388062 
	C307.463257,79.288208 302.976288,77.486282 298.444794,75.888992 
	C294.482635,74.492386 291.608917,72.224655 291.140778,67.941788 
	C290.730408,64.187439 288.135010,64.385025 285.671204,64.559189 
	C282.965515,64.750450 279.145966,63.057320 278.421356,67.619843 
	C277.621765,72.654633 274.429047,74.717888 269.909698,76.194611 
	C264.252594,78.043098 258.839661,80.638847 252.921112,82.923218 
z"/>
<path fill="#77BFC7" opacity="1.000000" stroke="none" 
	d="
M288.893158,149.176147 
	C299.691681,146.191971 305.781952,139.221573 306.745392,129.136978 
	C307.570801,120.497345 302.286682,111.583450 294.037109,107.699135 
	C285.424622,103.643936 276.148590,105.609085 268.337067,112.743027 
	C267.096619,113.875847 264.746521,113.793571 262.909454,114.273071 
	C263.270081,112.266495 262.955109,109.678665 264.100586,108.347305 
	C271.772675,99.429970 285.122131,96.773827 296.067993,101.612366 
	C307.790222,106.794098 314.527069,118.845642 312.868073,131.666214 
	C311.347809,143.414902 301.867615,153.405884 289.783691,155.506744 
	C287.052765,155.981506 282.653656,157.999680 281.945007,153.272476 
	C281.253601,148.660309 285.978302,150.144638 288.893158,149.176147 
z"/>
<path fill="#78C2CA" opacity="1.000000" stroke="none" 
	d="
M236.865265,58.053474 
	C239.502640,58.109173 241.749207,57.827343 243.787170,58.353493 
	C244.918640,58.645611 246.427063,60.282726 246.432480,61.320572 
	C246.437592,62.304020 244.850418,63.571533 243.685852,64.197868 
	C242.758026,64.696861 241.412064,64.475365 240.251663,64.476334 
	C224.602707,64.489418 208.953766,64.490746 193.304825,64.474770 
	C192.145752,64.473587 190.791107,64.663094 189.877625,64.145645 
	C188.745605,63.504410 187.208145,62.174217 187.261795,61.221367 
	C187.320908,60.171394 188.823792,58.865753 189.999344,58.313293 
	C191.107346,57.792580 192.607605,58.061508 193.935364,58.060459 
	C208.086014,58.049255 222.236679,58.053478 236.865265,58.053474 
z"/>
<path fill="#79C4CC" opacity="1.000000" stroke="none" 
	d="
M216.932098,70.839890 
	C219.740524,70.863167 222.140701,70.540421 224.352707,71.044128 
	C225.609055,71.330223 226.557297,72.969231 227.644287,73.998947 
	C226.672012,74.986580 225.719177,76.808952 224.724442,76.832123 
	C215.276901,77.052116 205.819473,77.070831 196.373550,76.820511 
	C195.338470,76.793076 194.357758,74.714546 193.351837,73.587341 
	C194.580704,72.680847 195.778488,71.044518 197.043671,70.990616 
	C203.501221,70.715569 209.976196,70.849243 216.932098,70.839890 
z"/>
<path fill="#73B7BF" opacity="1.000000" stroke="none" 
	d="
M215.653778,89.875946 
	C211.383286,89.866913 207.531540,90.171310 203.780884,89.689178 
	C202.315567,89.500824 201.077484,87.544800 199.735901,86.393890 
	C201.030014,85.359566 202.248062,83.572449 203.632584,83.432510 
	C207.734940,83.017883 211.941086,82.918610 216.028107,83.384766 
	C217.880569,83.596062 219.547577,85.433510 221.298706,86.533264 
	C219.570129,87.647118 217.841537,88.760971 215.653778,89.875946 
z"/>
<path fill="#79C3CB" opacity="1.000000" stroke="none" 
	d="
M207.309998,102.358582 
	C205.861374,102.343536 204.667862,102.673775 203.908905,102.241348 
	C202.417877,101.391846 201.168503,100.118202 199.819138,99.020058 
	C201.122253,98.023430 202.363663,96.281250 203.739807,96.167374 
	C208.197174,95.798492 212.730042,95.755562 217.176788,96.181908 
	C218.616852,96.319984 219.881104,98.291847 221.225784,99.424896 
	C219.895584,100.386406 218.654251,101.976852 217.216873,102.179962 
	C214.118530,102.617767 210.919434,102.342560 207.309998,102.358582 
z"/>
<path fill="#2E3030" opacity="1.000000" stroke="none" 
	d="
M271.260986,130.257690 
	C271.642120,132.102524 272.030640,133.573196 272.033539,135.044617 
	C272.073547,155.373489 272.100067,175.702606 272.038452,196.031372 
	C272.017822,202.837982 268.468750,206.454117 261.532867,206.643875 
	C254.706024,206.830673 247.870285,206.695511 241.038437,206.695923 
	C216.543701,206.697403 192.048981,206.697372 167.554245,206.696136 
	C154.094849,206.695465 152.033691,204.602509 152.033554,190.945984 
	C152.033386,172.783218 152.016800,154.620438 152.041382,136.457718 
	C152.052902,127.939522 155.319412,124.441231 163.725983,124.422203 
	C195.885574,124.349403 228.045395,124.396858 260.205139,124.385719 
	C264.778320,124.384132 268.847290,125.306160 271.260986,130.257690 
M177.634506,165.293198 
	C181.615372,163.803635 180.637070,161.292755 178.533279,159.180603 
	C175.507645,156.142944 172.119858,153.465988 167.786423,149.671722 
	C172.231445,145.778091 175.773102,143.013397 178.828568,139.788116 
	C179.715088,138.852310 179.209366,136.597565 179.341888,134.947433 
	C177.736938,135.112335 175.605774,134.679138 174.619354,135.547028 
	C170.634598,139.053040 166.816498,142.800125 163.360764,146.822418 
	C162.399353,147.941467 162.049667,151.113754 162.865768,151.977646 
	C167.271820,156.641647 172.132751,160.875916 177.634506,165.293198 
M203.224701,142.156097 
	C205.777100,144.462112 208.329514,146.768127 211.604675,149.727127 
	C207.599609,153.416397 204.218216,156.133713 201.400528,159.345581 
	C200.434479,160.446762 200.879288,162.785660 200.679535,164.559082 
	C202.306900,164.332443 204.444641,164.683655 205.471313,163.776917 
	C209.447037,160.265549 213.258881,156.515427 216.695511,152.482468 
	C217.611618,151.407410 217.768433,148.319946 216.914673,147.337173 
	C213.112488,142.960388 208.890030,138.933411 204.629059,134.985519 
	C203.916855,134.325653 201.652191,134.147766 201.182587,134.686523 
	C200.386185,135.600189 200.007446,137.359482 200.277588,138.580994 
	C200.529907,139.721848 201.854187,140.625641 203.224701,142.156097 
M192.881866,151.384262 
	C193.908493,147.195023 195.178055,143.042648 195.822784,138.795441 
	C196.033005,137.410583 194.614151,135.778442 193.940384,134.259399 
	C192.609222,135.184555 190.432648,135.865967 190.084213,137.074478 
	C187.833435,144.880722 185.846695,152.772964 184.136154,160.715134 
	C183.861237,161.991592 185.403061,163.659348 186.105042,165.146210 
	C187.458527,164.035614 189.440826,163.187088 190.035477,161.760223 
	C191.299408,158.727448 191.841629,155.393890 192.881866,151.384262 
M171.317200,187.688080 
	C178.146652,187.720901 184.984756,187.944458 191.798660,187.635040 
	C193.264938,187.568466 194.643814,185.577606 196.062943,184.473129 
	C194.792618,183.398468 193.561813,181.454834 192.245331,181.394958 
	C185.429886,181.084930 178.588837,181.142883 171.766327,181.366348 
	C170.560501,181.405838 168.522232,182.751450 168.435623,183.645676 
	C168.320923,184.830185 169.748627,186.164078 171.317200,187.688080 
M195.982819,194.405121 
	C194.540115,193.234619 193.153503,191.146027 191.644897,191.053848 
	C185.381317,190.671097 179.068588,190.676544 172.802460,191.036530 
	C171.190170,191.129166 169.681976,193.034058 168.125961,194.106415 
	C169.604156,195.092957 171.042465,196.852249 172.567520,196.930954 
	C178.837738,197.254623 185.137848,197.179977 191.418594,196.983795 
	C192.876633,196.938232 194.301712,195.837509 195.982819,194.405121 
M178.433777,171.917770 
	C174.114197,171.928955 169.778580,171.737640 165.485031,172.077591 
	C164.234909,172.176575 163.104919,173.792786 161.919861,174.713531 
	C162.910370,175.812653 163.867188,177.826202 164.896805,177.864166 
	C172.194565,178.133133 179.511078,178.109528 186.810669,177.859604 
	C187.809937,177.825409 189.492630,176.031113 189.505325,175.034470 
	C189.517944,174.044968 187.949387,172.380951 186.848801,172.165726 
	C184.443069,171.695267 181.894394,171.955811 178.433777,171.917770 
M234.805862,152.950500 
	C238.634415,152.930389 242.488754,153.153702 246.276871,152.752075 
	C247.525726,152.619675 248.603409,150.872452 249.759369,149.863602 
	C248.680023,148.829834 247.650314,146.972336 246.512787,146.903748 
	C241.375473,146.594101 236.198730,146.637115 231.058273,146.934555 
	C230.030853,146.994003 228.586624,148.592285 228.305649,149.722427 
	C228.119644,150.470703 229.486023,151.952942 230.488968,152.545349 
	C231.390610,153.077911 232.744263,152.845200 234.805862,152.950500 
M249.721588,158.708542 
	C249.237747,158.060684 248.774658,156.867477 248.266907,156.848160 
	C242.235855,156.618713 236.195786,156.461853 230.165390,156.601654 
	C229.461990,156.617935 228.040115,158.813019 228.295410,159.494568 
	C228.712982,160.609344 230.198669,162.008392 231.298187,162.066360 
	C236.396225,162.335052 241.524612,162.335541 246.622177,162.061279 
	C247.721695,162.002151 248.738754,160.410156 249.721588,158.708542 
M206.335144,181.188309 
	C205.505753,181.197037 204.476624,180.895477 203.886246,181.275513 
	C202.404617,182.229233 201.121460,183.491226 199.758682,184.629578 
	C201.210754,185.682892 202.595566,186.855331 204.147568,187.731628 
	C204.778976,188.088104 205.917435,188.085449 206.575775,187.752701 
	C208.431427,186.814743 210.157730,185.620865 211.935013,184.527847 
	C210.343353,183.416672 208.751694,182.305511 206.335144,181.188309 
M196.999130,171.927643 
	C195.791580,173.004166 194.584045,174.080688 193.376495,175.157211 
	C194.684616,176.134750 195.999954,177.934052 197.299408,177.922653 
	C200.208710,177.897186 205.098145,179.878540 205.232758,175.017792 
	C205.359619,170.437805 200.614655,172.382675 196.999130,171.927643 
M206.358490,190.883545 
	C205.694870,190.885406 204.876251,190.637222 204.396011,190.934921 
	C202.814957,191.914932 201.356461,193.092667 199.850891,194.194473 
	C201.335770,195.152924 202.762268,196.227966 204.333191,197.014587 
	C204.996872,197.346909 206.087082,197.337036 206.770233,197.021347 
	C208.522263,196.211731 210.154861,195.143631 211.835205,194.178864 
	C210.295135,193.081451 208.755081,191.984024 206.358490,190.883545 
M254.744965,152.164185 
	C256.479248,152.346802 258.711212,153.259552 259.810364,152.510391 
	C260.951019,151.732971 260.995117,149.346710 261.518799,147.664062 
	C259.499542,147.424408 257.340149,146.675858 255.524612,147.175873 
	C254.708588,147.400620 254.579727,150.120544 254.744965,152.164185 
M262.304230,159.557617 
	C261.838104,155.342957 258.695068,155.629196 256.031403,156.383850 
	C254.963654,156.686371 254.453445,158.956924 253.689468,160.331696 
	C255.890762,160.878204 258.074402,161.539627 260.306976,161.882233 
	C260.802307,161.958237 261.470215,160.909363 262.304230,159.557617 
z"/>
<path fill="#2E3030" opacity="1.000000" stroke="none" 
	d="
M306.616180,30.939320 
	C306.726562,34.660847 306.726562,37.976269 306.726562,41.756447 
	C262.682007,41.756447 218.696640,41.756447 174.126556,41.756447 
	C174.126556,39.049465 174.044403,36.431938 174.142715,33.821201 
	C174.389587,27.265028 177.822662,23.641554 184.401550,23.359106 
	C189.721893,23.130686 195.059143,23.287729 200.388885,23.287374 
	C231.701660,23.285284 263.014465,23.312157 294.327179,23.264572 
	C299.925781,23.256065 304.614899,24.472897 306.616180,30.939320 
M212.160812,29.901756 
	C209.251511,29.879938 205.604919,29.102732 206.424164,33.918743 
	C206.576736,34.815632 209.015579,35.838650 210.416473,35.864292 
	C211.837204,35.890301 213.757751,35.089550 214.527039,33.995403 
	C214.967300,33.369225 213.550385,31.437302 212.160812,29.901756 
M190.502396,34.022953 
	C192.722519,34.566689 194.924393,35.305397 197.175674,35.515965 
	C197.732895,35.568077 198.908676,33.934464 198.964203,33.024712 
	C199.018784,32.130611 198.152359,30.508057 197.444351,30.357006 
	C194.514404,29.731913 190.995377,28.361393 190.502396,34.022953 
M228.767731,35.665886 
	C229.255432,34.183491 229.743149,32.701096 230.230850,31.218697 
	C228.083206,30.855770 225.928116,30.228855 223.792374,30.288944 
	C223.141983,30.307243 221.881348,33.017506 222.026596,33.138081 
	C223.381531,34.262924 224.957291,35.138657 226.529587,35.972401 
	C226.900696,36.169178 227.499603,35.936329 228.767731,35.665886 
z"/>
<path fill="#77BFC7" opacity="1.000000" stroke="none" 
	d="
M177.235657,165.275787 
	C172.132751,160.875916 167.271820,156.641647 162.865768,151.977646 
	C162.049667,151.113754 162.399353,147.941467 163.360764,146.822418 
	C166.816498,142.800125 170.634598,139.053040 174.619354,135.547028 
	C175.605774,134.679138 177.736938,135.112335 179.341888,134.947433 
	C179.209366,136.597565 179.715088,138.852310 178.828568,139.788116 
	C175.773102,143.013397 172.231445,145.778091 167.786423,149.671722 
	C172.119858,153.465988 175.507645,156.142944 178.533279,159.180603 
	C180.637070,161.292755 181.615372,163.803635 177.235657,165.275787 
z"/>
<path fill="#78C2CA" opacity="1.000000" stroke="none" 
	d="
M202.965668,141.894928 
	C201.854187,140.625641 200.529907,139.721848 200.277588,138.580994 
	C200.007446,137.359482 200.386185,135.600189 201.182587,134.686523 
	C201.652191,134.147766 203.916855,134.325653 204.629059,134.985519 
	C208.890030,138.933411 213.112488,142.960388 216.914673,147.337173 
	C217.768433,148.319946 217.611618,151.407410 216.695511,152.482468 
	C213.258881,156.515427 209.447037,160.265549 205.471313,163.776917 
	C204.444641,164.683655 202.306900,164.332443 200.679535,164.559082 
	C200.879288,162.785660 200.434479,160.446762 201.400528,159.345581 
	C204.218216,156.133713 207.599609,153.416397 211.604675,149.727127 
	C208.329514,146.768127 205.777100,144.462112 202.965668,141.894928 
z"/>
<path fill="#77BFC7" opacity="1.000000" stroke="none" 
	d="
M192.780792,151.783936 
	C191.841629,155.393890 191.299408,158.727448 190.035477,161.760223 
	C189.440826,163.187088 187.458527,164.035614 186.105042,165.146210 
	C185.403061,163.659348 183.861237,161.991592 184.136154,160.715134 
	C185.846695,152.772964 187.833435,144.880722 190.084213,137.074478 
	C190.432648,135.865967 192.609222,135.184555 193.940369,134.259399 
	C194.614151,135.778442 196.033005,137.410583 195.822784,138.795441 
	C195.178055,143.042648 193.908493,147.195023 192.780792,151.783936 
z"/>
<path fill="#73B8BF" opacity="1.000000" stroke="none" 
	d="
M170.915329,187.560913 
	C169.748627,186.164078 168.320923,184.830185 168.435623,183.645676 
	C168.522232,182.751450 170.560501,181.405838 171.766327,181.366348 
	C178.588837,181.142883 185.429886,181.084930 192.245331,181.394958 
	C193.561813,181.454834 194.792618,183.398468 196.062943,184.473129 
	C194.643814,185.577606 193.264938,187.568466 191.798660,187.635040 
	C184.984756,187.944458 178.146652,187.720901 170.915329,187.560913 
z"/>
<path fill="#78C2CA" opacity="1.000000" stroke="none" 
	d="
M195.862381,194.813721 
	C194.301712,195.837509 192.876633,196.938232 191.418594,196.983795 
	C185.137848,197.179977 178.837738,197.254623 172.567520,196.930954 
	C171.042465,196.852249 169.604156,195.092957 168.125961,194.106415 
	C169.681976,193.034058 171.190170,191.129166 172.802460,191.036530 
	C179.068588,190.676544 185.381317,190.671097 191.644897,191.053848 
	C193.153503,191.146027 194.540115,193.234619 195.862381,194.813721 
z"/>
<path fill="#79C4CC" opacity="1.000000" stroke="none" 
	d="
M178.918945,171.917755 
	C181.894394,171.955811 184.443069,171.695267 186.848801,172.165726 
	C187.949387,172.380951 189.517944,174.044968 189.505325,175.034470 
	C189.492630,176.031113 187.809937,177.825409 186.810669,177.859604 
	C179.511078,178.109528 172.194565,178.133133 164.896805,177.864166 
	C163.867188,177.826202 162.910370,175.812653 161.919861,174.713531 
	C163.104919,173.792786 164.234909,172.176575 165.485031,172.077591 
	C169.778580,171.737640 174.114197,171.928955 178.918945,171.917755 
z"/>
<path fill="#78C1C9" opacity="1.000000" stroke="none" 
	d="
M234.352203,152.950287 
	C232.744263,152.845200 231.390610,153.077911 230.488968,152.545349 
	C229.486023,151.952942 228.119644,150.470703 228.305649,149.722427 
	C228.586624,148.592285 230.030853,146.994003 231.058273,146.934555 
	C236.198730,146.637115 241.375473,146.594101 246.512787,146.903748 
	C247.650314,146.972336 248.680023,148.829834 249.759369,149.863602 
	C248.603409,150.872452 247.525726,152.619675 246.276871,152.752075 
	C242.488754,153.153702 238.634415,152.930389 234.352203,152.950287 
z"/>
<path fill="#78C2CA" opacity="1.000000" stroke="none" 
	d="
M249.757690,159.116394 
	C248.738754,160.410156 247.721695,162.002151 246.622177,162.061279 
	C241.524612,162.335541 236.396225,162.335052 231.298187,162.066360 
	C230.198669,162.008392 228.712982,160.609344 228.295410,159.494568 
	C228.040115,158.813019 229.461990,156.617935 230.165390,156.601654 
	C236.195786,156.461853 242.235855,156.618713 248.266907,156.848160 
	C248.774658,156.867477 249.237747,158.060684 249.757690,159.116394 
z"/>
<path fill="#73B8BF" opacity="1.000000" stroke="none" 
	d="
M206.747589,181.191315 
	C208.751694,182.305511 210.343353,183.416672 211.935028,184.527863 
	C210.157730,185.620865 208.431427,186.814743 206.575775,187.752701 
	C205.917435,188.085449 204.778976,188.088104 204.147568,187.731628 
	C202.595566,186.855331 201.210754,185.682892 199.758698,184.629578 
	C201.121460,183.491226 202.404617,182.229233 203.886246,181.275513 
	C204.476624,180.895477 205.505753,181.197037 206.747589,181.191315 
z"/>
<path fill="#77C0C8" opacity="1.000000" stroke="none" 
	d="
M197.414185,171.918365 
	C200.614655,172.382675 205.359619,170.437805 205.232758,175.017792 
	C205.098145,179.878540 200.208710,177.897186 197.299408,177.922653 
	C195.999954,177.934052 194.684616,176.134750 193.376495,175.157211 
	C194.584045,174.080688 195.791580,173.004166 197.414185,171.918365 
z"/>
<path fill="#78C2CA" opacity="1.000000" stroke="none" 
	d="
M206.786743,190.885071 
	C208.755081,191.984024 210.295135,193.081451 211.835205,194.178864 
	C210.154861,195.143631 208.522263,196.211731 206.770233,197.021347 
	C206.087082,197.337036 204.996872,197.346909 204.333191,197.014587 
	C202.762268,196.227966 201.335770,195.152924 199.850891,194.194458 
	C201.356461,193.092667 202.814957,191.914932 204.396011,190.934921 
	C204.876251,190.637222 205.694870,190.885406 206.786743,190.885071 
z"/>
<path fill="#74BBC2" opacity="1.000000" stroke="none" 
	d="
M254.442017,151.936234 
	C254.579727,150.120544 254.708588,147.400620 255.524612,147.175873 
	C257.340149,146.675858 259.499542,147.424408 261.518799,147.664062 
	C260.995117,149.346710 260.951019,151.732971 259.810364,152.510391 
	C258.711212,153.259552 256.479248,152.346802 254.442017,151.936234 
z"/>
<path fill="#75BCC4" opacity="1.000000" stroke="none" 
	d="
M262.181458,159.968018 
	C261.470215,160.909363 260.802307,161.958237 260.306976,161.882233 
	C258.074402,161.539627 255.890762,160.878204 253.689468,160.331696 
	C254.453445,158.956924 254.963654,156.686371 256.031403,156.383850 
	C258.695068,155.629196 261.838104,155.342957 262.181458,159.968018 
z"/>
<path fill="#76BEC5" opacity="1.000000" stroke="none" 
	d="
M212.565216,29.997509 
	C213.550385,31.437302 214.967300,33.369225 214.527039,33.995403 
	C213.757751,35.089550 211.837204,35.890301 210.416473,35.864292 
	C209.015579,35.838650 206.576736,34.815632 206.424164,33.918743 
	C205.604919,29.102732 209.251511,29.879938 212.565216,29.997509 
z"/>
<path fill="#77BFC7" opacity="1.000000" stroke="none" 
	d="
M190.360275,33.653244 
	C190.995377,28.361393 194.514404,29.731913 197.444351,30.357006 
	C198.152359,30.508057 199.018784,32.130611 198.964203,33.024712 
	C198.908676,33.934464 197.732895,35.568077 197.175674,35.515965 
	C194.924393,35.305397 192.722519,34.566689 190.360275,33.653244 
z"/>
<path fill="#76BEC5" opacity="1.000000" stroke="none" 
	d="
M228.380722,35.783504 
	C227.499603,35.936329 226.900696,36.169178 226.529587,35.972401 
	C224.957291,35.138657 223.381531,34.262924 222.026596,33.138081 
	C221.881348,33.017506 223.141983,30.307243 223.792374,30.288944 
	C225.928116,30.228855 228.083206,30.855770 230.230865,31.218697 
	C229.743149,32.701096 229.255432,34.183491 228.380722,35.783504 
z"/>
</svg>